# xmcd
#
# Track frame offsets:
#	150
#	14793
#	27866
#	45000
#	59181
#	70159
#	85794
#	106462
#	130581
#	148351
#	174856
#	186177
#	197013
#	208202
#
# Disc length: 2942 seconds
#
# Revision: 4
# Processed by: cddbd v1.5.2PL0 Copyright (c) Steve Scherf et al.
# Submitted via: EZCDAudioConverter 2.1.7.1
#
DISCID=ca0b7c0e
DTITLE=V/A - True Blood V4
DYEAR=2013
DGENRE=
TTITLE0=Eric Burdon with Jenny Lewis - Don't Let Me Be Misunderstood
TTITLE1=Iggy Pop with Bethany Cosentino - Let's Boot And Rally
TTITLE2=The Heavy - What Makes A Good Man?
TTITLE3=Howlin' Wolf - Smokestack Lightnin'
TTITLE4=Alabama Shakes - Pocket Change
TTITLE5=Bosco Delrey - Authority Song
TTITLE6=My Morning Jacket - Turn Turn Turn (To Everything There Is A Season)
TTITLE7=Flaming Lips - Your Face Can Tell The Future
TTITLE8=Naked And Famous - The Sun
TTITLE9=Warpaint - Undertow
TTITLE10=Mobley - I Wanna Be Your Man
TTITLE11=Deap Vally - (She's A) Wanderer
TTITLE12=Koko Taylor - Whatever I Am, You Made Me
TTITLE13=Los Lobos - We'll Meet Again
EXTD=
EXTT0=
EXTT1=
EXTT2=
EXTT3=
EXTT4=
EXTT5=
EXTT6=
EXTT7=
EXTT8=
EXTT9=
EXTT10=
EXTT11=
EXTT12=
EXTT13=
PLAYORDER=
